<svg width="20" height="20" viewBox="0 0 20 20" fill="red" xmlns="http://www.w3.org/2000/svg">
<path d="M9.44253 4.38902C9.64877 3.87033 10.3512 3.87033 10.5575 4.38902L11.7748 7.45043C11.8617 7.6691 12.0583 7.81851 12.284 7.83743L15.4436 8.1024C15.979 8.14729 16.196 8.84611 15.7882 9.21157L13.3808 11.3686C13.2089 11.5227 13.1338 11.7644 13.1863 11.9948L13.9218 15.2199C14.0464 15.7664 13.4781 16.1983 13.0198 15.9055L10.3147 14.1772C10.1215 14.0537 9.8785 14.0537 9.68528 14.1772L6.98019 15.9055C6.52187 16.1983 5.95357 15.7664 6.07818 15.2199L6.81366 11.9948C6.86619 11.7644 6.7911 11.5227 6.61915 11.3686L4.21184 9.21157C3.80397 8.84611 4.02104 8.14729 4.55637 8.1024L7.71601 7.83743C7.9417 7.81851 8.13829 7.6691 8.22524 7.45043L9.44253 4.38902Z" fill="red" />
</svg>
